# xmcd
#
# Track frame offsets: 
#        150
#        13669
#        29679
#        42126
#        52648
#        65986
#        80708
#        96416
#        110421
#        125091
#        139050
#        154038
#        170751
#        185428
#        201827
#        217127
#        241069
#
# Disc length: 3416 seconds
#
# Revision: 0
# Processed by: cddbd v1.5.2PL0 Copyright (c) Steve Scherf et al.
# Submitted via: ExactAudioCopy v1.1
#
DISCID=fa0d5611
DTITLE=Various Artist - NRJ Holiday 2018 - CD 2
DYEAR=2018
DGENRE=Top 40
TTITLE0=Naestro Feat. Maître Gims, Vitaa, Dadju and Slimane - Bella Ciao
TTITLE1=Shawn Mendes - In My Blood
TTITLE2=Ridsa - Désabonné
TTITLE3=Ofenbach Vs. Lack Of Afro Feat. Wax and Herbal T - Party
TTITLE4=Sara'h Feat. Annalisa - Je Me Souviens De Tout
TTITLE5=DJ Snake - Magenta Riddim
TTITLE6=Louane - No
TTITLE7=Zedd Feat. Maren Morris and Grey - The Middle
TTITLE8=Lartiste Feat. Caroliina - Mafiosa
TTITLE9=The Parakit Feat. Philippine - Dam Dam
TTITLE10=Lautner - Par Amour
TTITLE11=Post Malone Feat. Ty Dolla $Ign - Psycho
TTITLE12=The Chainsmokers - Sick Boy
TTITLE13=Kataleya - J'En Peux Plus
TTITLE14=Vianney - Le Fils A Papa
TTITLE15=Bigflo and Oli Feat. Notre Père, Fabian - Papa
TTITLE16=Jahyanai Feat. Bamby - Who Mad Again
EXTD=
EXTT0=
EXTT1=
EXTT2=
EXTT3=
EXTT4=
EXTT5=
EXTT6=
EXTT7=
EXTT8=
EXTT9=
EXTT10=
EXTT11=
EXTT12=
EXTT13=
EXTT14=
EXTT15=
EXTT16=
PLAYORDER=
